inDegrees=no
num_controls=7
num_derivatives=13
num_iterations=161
num_multipliers=7
num_parameters=0
num_slacks=7
num_states=26
objective=4.433866
objective_accelerations=0.114947
objective_balance=0.047112
objective_effort=0.195588
objective_height=4.025584
objective_ligament=0.050635
solver_duration=1655.140737
status=Solve_Succeeded
success=true
DataType=double
version=3
OpenSimVersion=4.4-2022-07-23-0e9fedc
endheader
time	/jointset/ground_pelvis/pelvis_tilt/value	/jointset/ground_pelvis/pelvis_tx/value	/jointset/ground_pelvis/pelvis_ty/value	/jointset/hip_l/hip_flexion_l/value	/jointset/hip_l/hip_adduction_l/value	/jointset/hip_l/hip_rotation_l/value	/jointset/back/lumbar_extension/value	/jointset/patellofemoral_l/patellar_flexion_l/value	/jointset/knee_l/knee_flexion_l/value	/jointset/knee_l/knee_adduction_l/value	/jointset/knee_l/knee_rotation_l/value	/jointset/ankle_l/ankle_angle_l/value	/jointset/subtalar_l/subtalar_angle_l/value	/jointset/ground_pelvis/pelvis_tilt/speed	/jointset/ground_pelvis/pelvis_tx/speed	/jointset/ground_pelvis/pelvis_ty/speed	/jointset/hip_l/hip_flexion_l/speed	/jointset/hip_l/hip_adduction_l/speed	/jointset/hip_l/hip_rotation_l/speed	/jointset/back/lumbar_extension/speed	/jointset/patellofemoral_l/patellar_flexion_l/speed	/jointset/knee_l/knee_flexion_l/speed	/jointset/knee_l/knee_adduction_l/speed	/jointset/knee_l/knee_rotation_l/speed	/jointset/ankle_l/ankle_angle_l/speed	/jointset/subtalar_l/subtalar_angle_l/speed	/forceset/tau_hip_flexion_l	/forceset/tau_hip_adduction_l	/forceset/tau_hip_rotation_l	/forceset/tau_knee_flexion_l	/forceset/tau_ankle_angle_l	/forceset/tau_subtalar_angle_l	/forceset/tau_lumbar_extension	lambda_cid13_p0	lambda_cid13_p1	lambda_cid13_p2	lambda_cid13_p3	lambda_cid13_p4	lambda_cid13_p5	lambda_cid14_p0	/jointset/ground_pelvis/pelvis_tilt/accel	/jointset/ground_pelvis/pelvis_tx/accel	/jointset/ground_pelvis/pelvis_ty/accel	/jointset/hip_l/hip_flexion_l/accel	/jointset/hip_l/hip_adduction_l/accel	/jointset/hip_l/hip_rotation_l/accel	/jointset/back/lumbar_extension/accel	/jointset/patellofemoral_l/patellar_flexion_l/accel	/jointset/knee_l/knee_flexion_l/accel	/jointset/knee_l/knee_adduction_l/accel	/jointset/knee_l/knee_rotation_l/accel	/jointset/ankle_l/ankle_angle_l/accel	/jointset/subtalar_l/subtalar_angle_l/accel	gamma_cid13_p0	gamma_cid13_p1	gamma_cid13_p2	gamma_cid13_p3	gamma_cid13_p4	gamma_cid13_p5	gamma_cid14_p0
0.5	0.1144088465541831	0.05731381510510665	0.9077677257766379	0.2965554684694136	-0.3297618177592027	-0.1971726513132454	-0.7258316706628011	0.5253415144688387	0.5253415144692088	-0.1718403915090269	-0.1745315573480813	0.1500035752480277	0.01537620828481116	0.4415597502507834	0.01308890474332545	-0.04928642758511954	-0.1011541316687926	-0.07176663145089261	0.2688078231907029	-0.8579889619059478	0.7099008051360336	0.7099008051359966	0.002550164576982013	-4.296122952719711e-06	0.4151803965993222	0.06524913799635433	-0.1048676530594687	0.03303768992338203	1.935236254166093e-07	-0.1841006313309438	-0.003739959103747683	0.03402419877886746	0.2218528013739892	-45.82283535995344	-10.48650202846245	5.481556196909271	4.317627911230661	-704.5423477601581	-79.74114191962965	-22.62817912597323	-0.07330678492339912	0.07500689253549946	-0.0326258882635812	-0.4364867926192315	0.1426852301734733	-0.2728830011704758	0.8254645071638931	-0.7159204757475743	-0.7159204757475606	-0.03650197172893133	0.005284465982275124	-0.2182717846138746	0.09672027240605469	2.111421050681891e-08	-3.245232065977887e-08	-5.294152027206561e-08	-1.937968737148355e-08	2.184466545773733e-08	2.819230752871341e-08	5.861566464926394e-09
0.51	0.1188200067911742	0.05744844991059457	0.9072733190338506	0.2955224815594795	-0.3304722732714632	-0.1944988804115948	-0.7343689404144683	0.5324039385324103	0.5324039385327131	-0.1718164782629105	-0.174531609154614	0.1541439778715793	0.01603347984835876	0.4406174259717525	0.01383849621905502	-0.04958105052841415	-0.1054480292796501	-0.07032001138933709	0.2659059284610127	-0.8493542321877873	0.7024768356679532	0.7024768356679449	0.002231718191508583	-5.415963376040968e-06	0.4128430436854135	0.06619235493802472	-0.1059475694663346	0.03417987290867498	0.0001352115008807866	-0.1853164789885714	-0.006928054286883135	0.0342004608964235	0.2243663253023333	-46.88406809679463	-10.37555625207657	5.461946781351031	4.672630001092731	-705.620195984239	-79.56190819721571	-22.50492374996014	-0.112924340093661	0.07499729412254148	-0.0257951267772886	-0.4265557324324266	0.1463328890203665	-0.3049017697040468	0.8990906400730813	-0.7717123086247971	-0.7717123086204971	-0.02964053492759922	-0.002722885974368752	-0.2500283234176187	0.09121055042996282	2.299820573895309e-08	-2.708652323394343e-08	-6.057001102288177e-08	-1.96872090001514e-08	2.480905805884623e-08	3.663437418411173e-08	7.135957460064262e-09
0.52	0.123220097967234	0.05759059303464593	0.9067763831357474	0.2944464127760097	-0.3311681260841366	-0.1918553402694074	-0.742816540181768	0.5393889074760442	0.5393889074762777	-0.1717957743932407	-0.1745316546949343	0.1582592947102637	0.01669980121039926	0.4393459380646964	0.01459056845601145	-0.04979225864827898	-0.1097705063750454	-0.06884609153282714	0.2627616712978928	-0.8400549650323843	0.6944097811484126	0.6944097811484331	0.001908289287190775	-3.042880589125487e-06	0.4101632396259758	0.06705909769499203	-0.1070274858732244	0.03532205589395986	0.0002702294781201646	-0.1865323266462073	-0.01011614947002293	0.03437672301396862	0.2268798492306631	-47.95030949230894	-10.26308934034524	5.4413592521584	5.032982955051946	-706.776755858651	-79.38963866019023	-22.37641993998468	-0.1391395105284965	0.07550304478090103	-0.01594292357761748	-0.4422026895267769	0.1481451891643582	-0.321355487856393	0.9583719946123651	-0.8445374860396271	-0.8445374860395992	-0.03749847549781292	0.005983050624330992	-0.2867620137196211	0.0814254354654546	2.399412445536282e-08	-2.232370094212362e-08	-6.56719513543946e-08	-1.945149119237163e-08	2.640335739045418e-08	4.290794036954325e-08	8.019635184766603e-09
0.53	0.1276058461461017	0.05774026756027463	0.9062777571614202	0.2933270082183345	-0.331849100004762	-0.1892444611899332	-0.7511678848768	0.5462900705261492	0.5462900705260442	-0.1717782728530773	-0.1745316724468668	0.1623461403769157	0.01737442427254366	0.4377503318466062	0.01534461730678608	-0.04991839789743054	-0.1141136187724193	-0.06734509528865276	0.2593741355897051	-0.8301089005024137	0.6857208313864712	0.6857208313864841	0.001592761412641326	-9.91434228594765e-07	0.4071510610146722	0.06785227782409468	-0.1079962601626959	0.03640337718344458	0.000388454894523251	-0.1878086527709017	-0.01316802798718786	0.03453587858329576	0.2292954660198377	-48.9689931270611	-10.14993749598342	5.418854671033374	5.363873784005222	-707.862816117997	-79.22539042482821	-22.24317668081312	-0.177774357358559	0.07539403534126984	-0.008763229467944798	-0.4308450562348846	0.1516308544639613	-0.3534470482211484	1.028484702902427	-0.8963750409187092	-0.8963750409198935	-0.02847746465291277	-0.002768259819012494	-0.3166690533307414	0.07628955993600488	2.488171277174418e-08	-1.740001249449502e-08	-7.055823355949748e-08	-1.912695520081078e-08	2.780155632460605e-08	4.908051844812845e-08	8.892087514295909e-09
